<?xml version="1.0" standalone="no"?>
<!DOCTYPE svg PUBLIC "-//W3C//DTD SVG 20010904//EN"
 "http://www.w3.org/TR/2001/REC-SVG-20010904/DTD/svg10.dtd">
<svg version="1.0" xmlns="http://www.w3.org/2000/svg"
 width="512.000000pt" height="512.000000pt" viewBox="0 0 512.000000 512.000000"
 preserveAspectRatio="xMidYMid meet">

<g transform="translate(0.000000,512.000000) scale(0.100000,-0.100000)"
fill="#000000" stroke="none">
<path d="M3510 5098 c-51 -19 -133 -98 -1227 -1192 -1297 -1296 -1223 -1214
-1223 -1346 0 -132 -74 -50 1223 -1346 1122 -1122 1174 -1173 1230 -1193 73
-27 131 -27 204 1 48 18 77 40 175 137 139 138 168 188 168 291 0 43 -7 80
-21 110 -15 35 -237 262 -997 1022 l-977 978 976 977 c662 663 982 991 995
1018 14 29 19 62 19 120 -1 109 -20 143 -164 286 -97 97 -126 120 -174 137
-72 27 -136 27 -207 0z"/>
</g>
</svg>
